<?xml version="1.0" encoding="utf-8"?>
<!-- Generator: Adobe Illustrator 25.4.1, SVG Export Plug-In . SVG Version: 6.00 Build 0)  -->
<svg version="1.1" xmlns="http://www.w3.org/2000/svg" xmlns:xlink="http://www.w3.org/1999/xlink" x="0px" y="0px"
	 viewBox="0 0 1366 768" style="enable-background:new 0 0 1366 768;" xml:space="preserve">
<style type="text/css">
	.st0{display:none;}
	.st1{display:inline;fill:#C12D1E;}
	.st2{opacity:0.3;fill:#FFFFFF;enable-background:new    ;}
	.st3{opacity:0.3;enable-background:new    ;}
	.st4{opacity:0.23;fill:#FFFFFF;enable-background:new    ;}
</style>
<g id="Capa_2" class="st0">
	<rect class="st1" width="1366" height="768"/>
</g>
<g id="Capa_1">
	<path class="st2" d="M1376.5,513c0,1.8-0.8,3.6-2.4,4.7l-25.5,18.8c-1.5,1.1-3.3,1.4-5.1,0.9c-1.8-0.5-3.2-1.8-3.8-3.5l-8.7-22.5
		l-19.4,14.3c-1.5,1.1-3.3,1.4-5.1,0.9c-1.8-0.5-3.2-1.8-3.8-3.5l-11.4-29.6c-1.2-3,0.3-6.4,3.3-7.5c3-1.2,6.4,0.3,7.5,3.4l8.7,22.4
		l19.3-14.3c1.5-1.1,3.3-1.4,5.1-0.9c1.8,0.5,3.2,1.8,3.8,3.5l8.7,22.5l19.4-14.3c2.6-1.9,6.2-1.4,8.2,1.2
		C1376.2,510.6,1376.5,511.8,1376.5,513z"/>
	<path class="st2" d="M816.3,135c0,1.5-0.6,3-1.7,4.1l-11.5,11.8c-2.2,2.3-5.9,2.4-8.2,0.1c-2.3-2.2-2.4-5.9-0.1-8.2l6.1-6.3
		l-7.7-4.2c-1.6-0.9-2.7-2.4-3-4.2s0.3-3.6,1.6-4.9l6.2-6.3l-7.7-4.3c-2.8-1.6-3.8-5.1-2.3-7.9s5.1-3.8,7.9-2.3l14.4,7.9
		c1.6,0.9,2.7,2.4,3,4.2c0.3,1.8-0.3,3.6-1.6,4.9l-6.2,6.3l7.7,4.2c1.6,0.9,2.7,2.4,3,4.2C816.2,134.5,816.3,134.8,816.3,135z"/>
	<path class="st2" d="M661.2,752.3c0,1.3-0.5,2.7-1.4,3.8l-10.4,12.1c-1.2,1.4-3,2.1-4.8,2s-3.5-1.1-4.5-2.6l-4.6-6.9l-5.4,6.3
		c-1.2,1.4-3,2.1-4.8,2s-3.5-1.1-4.5-2.6l-8.9-13.2c-1.8-2.7-1.1-6.3,1.6-8.1c2.7-1.8,6.3-1.1,8.1,1.6l4.6,6.9l5.4-6.3
		c1.2-1.4,3-2.1,4.8-2s3.5,1.1,4.5,2.6l4.6,6.9l5.4-6.3c2.1-2.4,5.8-2.7,8.2-0.6C660.6,749,661.2,750.7,661.2,752.3z"/>
	<path class="st2" d="M588.8,156.6c0,0.6-0.1,1.1-0.2,1.7l-4.8,15.9c-0.9,3.1-4.2,4.8-7.3,3.9c-3.1-0.9-4.8-4.2-3.9-7.3l2.6-8.6
		l-9-0.2c-1.8,0-3.5-0.9-4.6-2.4s-1.4-3.4-0.9-5.1l2.6-8.6l-9-0.2c-3.2-0.1-5.9-2.8-5.7-6c0.1-3.2,2.8-5.8,6-5.7l16.6,0.4
		c1.8,0,3.5,0.9,4.6,2.4s1.4,3.4,0.9,5.1l-2.6,8.6l9,0.2c1.8,0,3.5,0.9,4.6,2.4C588.4,154.1,588.8,155.4,588.8,156.6z"/>
	<path class="st2" d="M291,135.2c0,1-0.3,2.1-0.8,3l-6.5,10.9c-0.9,1.6-2.5,2.6-4.4,2.8c-1.8,0.2-3.6-0.4-4.9-1.8l-3.5-3.7l-2.6,4.4
		c-0.9,1.6-2.5,2.6-4.4,2.8s-3.6-0.4-4.9-1.8l-8.8-9.2c-2.2-2.3-2.1-6,0.2-8.2s6-2.1,8.2,0.2l3.5,3.7l2.6-4.4
		c0.9-1.6,2.5-2.6,4.4-2.8c1.8-0.2,3.6,0.4,4.9,1.8l3.5,3.7l2.6-4.4c1.6-2.8,5.2-3.7,8-2C290,131.2,291,133.2,291,135.2z"/>
	<path class="st2" d="M618.8,76.8c0,2-1,3.9-2.9,5c-2.8,1.6-6.3,0.7-8-2.1l-1.2-2.1l-1.7,1.7c-1.3,1.3-3.1,1.9-4.9,1.7
		c-1.8-0.2-3.4-1.3-4.3-2.8l-1.2-2.1l-1.7,1.7c-2.2,2.3-5.9,2.3-8.2,0.1c-2.3-2.3-2.3-5.9-0.1-8.2l7-7.2c1.3-1.3,3.1-1.9,4.9-1.7
		c1.8,0.2,3.4,1.3,4.3,2.8l1.2,2.1l1.7-1.7c1.3-1.3,3.1-1.9,4.9-1.7c1.8,0.2,3.4,1.3,4.3,2.9l5.1,8.7
		C618.5,74.7,618.8,75.8,618.8,76.8z"/>
	<path class="st2" d="M794.8,619.4c0,2.8-2,5.3-4.9,5.8c-3.2,0.5-6.2-1.6-6.7-4.8l-4.7-28.4l-26.2,12c-1.7,0.8-3.6,0.7-5.2-0.1
		c-1.6-0.8-2.7-2.4-3-4.2l-4.8-28.5l-26.2,12.1c-2.9,1.3-6.4,0.1-7.7-2.8c-1.3-2.9-0.1-6.4,2.8-7.7l33.1-15.3
		c1.7-0.8,3.6-0.7,5.2,0.1c1.6,0.8,2.7,2.4,3,4.2l4.8,28.5l26.2-12.1c1.7-0.8,3.6-0.7,5.2,0.1c1.6,0.8,2.7,2.4,3,4.2l6,36
		C794.8,618.7,794.8,619.1,794.8,619.4z"/>
	<path class="st2" d="M1372.2,183.9c0,1.2-0.3,2.4-1.1,3.4c-1.9,2.6-5.5,3.2-8.1,1.3l-23.5-16.8c-1.5-1.1-2.4-2.8-2.4-4.6
		c-0.1-1.8,0.7-3.6,2.2-4.7l16.5-13.4l-17.2-12.3c-1.5-1.1-2.4-2.8-2.4-4.6c-0.2-1.9,0.8-3.6,2.2-4.7l22.4-18.2
		c2.5-2,6.2-1.7,8.2,0.9c2,2.5,1.6,6.2-0.9,8.2l-16.5,13.3l17.2,12.3c1.5,1.1,2.4,2.7,2.4,4.6c0.1,1.8-0.7,3.6-2.2,4.7l-16.5,13.4
		l17.2,12.4C1371.4,180.3,1372.2,182.1,1372.2,183.9z"/>
	<path class="st2" d="M1176.8,461.1c0,2.2-1.2,4.3-3.3,5.3c-2.9,1.4-6.4,0.2-7.8-2.7l-3.8-8l-6.7,5.8c-1.4,1.2-3.2,1.7-5,1.3
		c-1.8-0.4-3.3-1.5-4.1-3.2l-3.8-8l-6.7,5.8c-2.4,2.1-6.1,1.9-8.2-0.6s-1.8-6.1,0.6-8.2l12.4-10.8c1.4-1.2,3.2-1.7,5-1.3
		c1.8,0.4,3.3,1.5,4.1,3.2l3.8,8l6.7-5.8c1.4-1.2,3.2-1.7,5-1.3s3.3,1.5,4.1,3.2l7.1,14.8C1176.6,459.4,1176.8,460.3,1176.8,461.1z"
		/>
	<path class="st2" d="M62.5,414.5c0,1.3-0.4,2.6-1.3,3.7c-2.1,2.5-5.7,2.8-8.2,0.8l-18.2-15.1L25,425.4c-0.8,1.7-2.2,2.9-4,3.3
		s-3.6,0-5-1.2l-18.2-15.1L-12,434c-1.3,2.9-4.8,4.2-7.7,2.9c-2.9-1.3-4.2-4.8-2.9-7.7l12.9-28.5c0.8-1.7,2.2-2.9,4-3.3s3.6,0,5,1.2
		l18.2,15.1l9.7-21.6c0.8-1.7,2.2-2.9,4-3.3s3.6,0,5,1.2l24.1,20C61.8,411.1,62.5,412.8,62.5,414.5z"/>
	<path class="st2" d="M1110.7,39.9c0,0.7-0.1,1.4-0.4,2.1c-0.6,1.7-2,3-3.8,3.5l-23.7,7.1l13.1,20.9c1,1.5,1.2,3.4,0.5,5.2
		c-0.6,1.7-2,3-3.8,3.5l-31,9.2c-3.1,0.9-6.3-0.8-7.2-3.9s0.8-6.3,3.9-7.2l23.6-7L1069,52.2c-1-1.5-1.1-3.5-0.5-5.2s2-3,3.8-3.5
		l23.7-7.1l-13.1-21c-1.7-2.7-0.9-6.3,1.9-8s6.3-0.9,8,1.9l17.1,27.4C1110.4,37.7,1110.7,38.8,1110.7,39.9z"/>
	<path class="st2" d="M521.3,686.2c0,0.7-0.1,1.3-0.3,2l-4,10.8c-1.1,3-4.4,4.6-7.5,3.5c-3-1.1-4.6-4.4-3.5-7.5l1.3-3.6l-3.9-0.3
		c-1.8-0.1-3.5-1.1-4.4-2.6c-1-1.5-1.2-3.4-0.6-5.1l1.3-3.7l-3.9-0.3c-3.2-0.2-5.6-3.1-5.4-6.3s3-5.6,6.3-5.4l11.5,0.9
		c1.8,0.1,3.5,1.1,4.4,2.7c1,1.5,1.2,3.4,0.6,5.1L512,680l3.9,0.3c1.8,0.1,3.5,1.1,4.5,2.7C521,683.9,521.3,685,521.3,686.2z"/>
	<path class="st2" d="M203.9,88.8c0,0.8-0.2,1.7-0.5,2.5l-6.6,14.1c-0.8,1.7-2.3,2.8-4,3.2c-1.8,0.4-3.6-0.1-5-1.2l-6.1-5.1
		l-3.3,7.2c-0.8,1.7-2.3,2.8-4,3.2c-1.8,0.4-3.6-0.1-5-1.2l-11.9-10.1c-2.5-2.1-2.8-5.8-0.7-8.2s5.8-2.8,8.2-0.7l6,5.1l3.3-7.2
		c0.8-1.7,2.3-2.8,4-3.2c1.8-0.4,3.6,0.1,5,1.2l6.1,5.1l3.4-7.2c1.4-2.9,4.8-4.2,7.8-2.8C202.6,84.5,203.9,86.6,203.9,88.8z"/>
	<path class="st2" d="M439.4,22.9c0,1.3-0.5,2.7-1.4,3.8L402.7,68c-1.2,1.4-2.9,2.1-4.8,2c-1.8-0.1-3.5-1-4.5-2.6l-26.3-38.7
		l-30.4,35.5c-1.2,1.4-2.9,2.1-4.8,2s-3.5-1-4.5-2.5l-30.5-45c-1.8-2.7-1.1-6.3,1.5-8.1c2.7-1.8,6.3-1.1,8.1,1.6L332.9,51l30.3-35.5
		c1.2-1.4,2.9-2.1,4.8-2s3.5,1,4.5,2.6l26.3,38.7l30.4-35.5c2.1-2.5,5.8-2.7,8.2-0.6C438.7,19.6,439.4,21.3,439.4,22.9z"/>
	<path class="st2" d="M649.6,10.4c0,1.8-0.8,3.5-2.3,4.7l-8,6c-1.5,1.1-3.3,1.4-5.1,0.9s-3.2-1.8-3.8-3.5l-0.9-2.2l-1.9,1.4
		c-1.5,1.1-3.3,1.4-5.1,0.9s-3.2-1.8-3.8-3.5L615,5.8c-1.2-3,0.3-6.4,3.3-7.6s6.4,0.3,7.6,3.3l0.9,2.2l1.9-1.4
		c1.5-1.1,3.3-1.4,5.1-0.9s3.2,1.8,3.8,3.5l0.9,2.2l1.9-1.4c2.6-1.9,6.2-1.4,8.2,1.2C649.2,7.9,649.6,9.1,649.6,10.4z"/>
	<path class="st2" d="M583.9,408.3c0,1.4-0.5,2.7-1.4,3.8c-2.1,2.4-5.8,2.7-8.2,0.5l-16.9-14.8l-9.8,20.2c-0.8,1.6-2.3,2.8-4.1,3.2
		c-1.8,0.4-3.6-0.1-5-1.3l-17-14.8l-9.8,20.3c-1.4,2.9-4.9,4.1-7.8,2.7s-4.1-4.9-2.7-7.8l13.1-27.1c0.8-1.6,2.3-2.8,4.1-3.2
		c1.8-0.4,3.6,0.1,5,1.3l17,14.8l9.8-20.2c0.8-1.6,2.3-2.8,4.1-3.2c1.8-0.4,3.6,0.1,5,1.3l22.7,19.8
		C583.2,405,583.9,406.7,583.9,408.3z"/>
	<path class="st2" d="M1077,196.3c0,0.2,0,0.4,0,0.5l-3.5,38.2c-0.3,3.2-3.1,5.6-6.3,5.3s-5.6-3.1-5.3-6.3l2.8-30.6l-30.3,5.4
		c-1.8,0.3-3.6-0.2-5-1.4c-1.3-1.2-2.1-3-1.9-4.8l2.8-30.7l-30.3,5.4c-3.2,0.6-6.2-1.6-6.8-4.7c-0.5-3.2,1.6-6.2,4.7-6.8l37.8-6.7
		c1.8-0.3,3.6,0.2,5,1.4s2,3,1.9,4.8l-2.8,30.6l30.3-5.4c1.8-0.3,3.6,0.2,5,1.4C1076.3,193.1,1077,194.7,1077,196.3z"/>
	<path class="st2" d="M1019.8,306.2c0,1.5-0.6,2.9-1.6,4l-7.2,7.5c-2.2,2.3-5.9,2.4-8.2,0.2c-2.3-2.2-2.4-5.9-0.2-8.2l1.9-2
		l-2.4-1.3c-1.6-0.9-2.7-2.4-3-4.2c-0.3-1.8,0.3-3.6,1.5-4.9l1.9-2l-2.4-1.3c-2.8-1.5-3.9-5.1-2.4-7.9s5.1-3.9,7.9-2.4l9.1,4.9
		c1.6,0.9,2.7,2.4,3,4.2s-0.3,3.6-1.5,4.9l-1.9,2l2.4,1.3c1.6,0.9,2.7,2.4,3,4.2C1019.8,305.6,1019.8,305.9,1019.8,306.2z"/>
	<path class="st2" d="M213.6,24.8c0,2-1,3.9-2.8,5c-2.8,1.7-6.3,0.8-8-2l-2.4-3.9l-3.2,3.4c-1.2,1.3-3,2-4.9,1.8
		c-1.8-0.2-3.4-1.2-4.4-2.8l-2.4-4l-3.2,3.4c-2.2,2.3-5.9,2.4-8.2,0.2s-2.4-5.9-0.2-8.2l8.4-8.9c1.2-1.3,3-2,4.9-1.8
		c1.8,0.2,3.4,1.2,4.4,2.8l2.4,3.9l3.2-3.4c1.2-1.3,3-2,4.9-1.8c1.8,0.2,3.4,1.2,4.4,2.8l6.4,10.5C213.3,22.8,213.6,23.8,213.6,24.8
		z"/>
	<path class="st2" d="M1380.3,281.6c0,2.5-1.6,4.8-4.1,5.5c-3.1,1-6.3-0.7-7.3-3.8l-2.7-8.5l-7.5,4.9c-1.5,1-3.4,1.2-5.1,0.6
		s-3-2-3.6-3.7l-2.7-8.5l-7.5,4.9c-2.7,1.8-6.3,1-8.1-1.7c-1.8-2.7-1-6.3,1.7-8.1l13.9-9c1.5-1,3.4-1.2,5.1-0.6c1.7,0.6,3,2,3.6,3.7
		l2.7,8.5l7.5-4.9c1.5-1,3.4-1.2,5.1-0.6s3,2,3.6,3.7l5,15.8C1380.2,280.4,1380.3,281,1380.3,281.6z"/>
	<path class="st2" d="M540.2,15.5c0,2.5-1.6,4.8-4.2,5.6l-18.5,5.6l10.3,16.4c1,1.5,1.2,3.4,0.5,5.1c-0.6,1.7-2,3-3.8,3.5L506,57.4
		l10.3,16.4c1.7,2.7,0.9,6.3-1.8,8s-6.3,0.9-8-1.8l-14.4-22.9c-1-1.5-1.2-3.5-0.5-5.2s2-3,3.8-3.5l18.6-5.6l-10.3-16.4
		c-1-1.5-1.2-3.5-0.5-5.1c0.6-1.7,2-3,3.8-3.5l25.9-7.8c3.1-0.9,6.3,0.8,7.3,3.9C540.1,14.4,540.2,14.9,540.2,15.5z"/>
	<path class="st2" d="M513.2,547c0,1.4-0.5,2.8-1.4,3.8l-15.2,17.4c-2.1,2.4-5.8,2.7-8.2,0.5c-2.4-2.1-2.7-5.8-0.5-8.2l10.2-11.7
		l-14-6.8c-1.6-0.8-2.8-2.3-3.2-4.1c-0.4-1.8,0.1-3.6,1.3-5l10.2-11.7l-14-6.8c-2.9-1.4-4.1-4.9-2.7-7.8s4.9-4.1,7.8-2.7l20.9,10.1
		c1.6,0.8,2.8,2.3,3.2,4.1c0.4,1.8-0.1,3.6-1.3,5L495.9,535l14,6.8c1.6,0.8,2.8,2.3,3.2,4.1C513.1,546.2,513.2,546.6,513.2,547z"/>
	<path class="st2" d="M1189.7,723.6c0,0.7-0.1,1.4-0.4,2.1c-0.7,1.7-2.1,3-3.8,3.5l-14.9,4.3l8.1,13.2c0.9,1.5,1.1,3.5,0.4,5.2
		s-2.1,3-3.8,3.5l-22.2,6.4c-3.1,0.9-6.3-0.9-7.2-4c-0.9-3.1,0.9-6.3,4-7.2l14.9-4.3l-8.1-13.2c-0.9-1.5-1.1-3.5-0.4-5.2
		s2.1-3,3.8-3.5l14.9-4.3l-8.1-13.2c-1.7-2.8-0.8-6.3,1.9-8c2.8-1.7,6.3-0.8,8,2l12,19.8C1189.4,721.5,1189.7,722.5,1189.7,723.6z"
		/>
	<path class="st2" d="M654.5,662.9c0,0.3,0,0.6-0.1,0.9c-0.5,3.2-3.5,5.4-6.7,4.9l-30.1-4.7c-1.8-0.3-3.4-1.4-4.2-3
		c-0.9-1.6-0.9-3.5-0.2-5.2l9.3-20.8l-22.5-3.5c-1.8-0.3-3.4-1.4-4.2-3c-0.9-1.6-1-3.5-0.2-5.2l12.4-27.7c1.3-2.9,4.8-4.2,7.7-2.9
		s4.3,4.8,2.9,7.7l-9.3,20.8l22.5,3.5c1.8,0.3,3.4,1.4,4.2,3c0.9,1.6,1,3.5,0.2,5.2l-9.3,20.8l22.5,3.5
		C652.5,657.6,654.5,660.1,654.5,662.9z"/>
	<path class="st2" d="M160.7,696.6c0,1.7-0.7,3.3-2,4.4L120,735.2c-2.4,2.1-6.1,1.9-8.2-0.5s-1.9-6.1,0.5-8.2l33.1-29.2l-36.9-24.2
		c-1.5-1-2.5-2.6-2.6-4.5s0.6-3.6,1.9-4.8l33.1-29.2L104,610.4c-2.7-1.8-3.4-5.4-1.7-8.1c1.8-2.7,5.4-3.5,8.1-1.7l43.3,28.4
		c1.5,1,2.5,2.6,2.6,4.5c0.1,1.8-0.6,3.6-1.9,4.8l-33.1,29.2l36.9,24.2c1.5,1,2.5,2.7,2.6,4.5C160.7,696.3,160.7,696.5,160.7,696.6z
		"/>
	<path class="st2" d="M885.3,549.2c0,1.2-0.4,2.4-1.1,3.4c-1.9,2.6-5.5,3.2-8.1,1.3l-10.3-7.4c-1.5-1.1-2.4-2.8-2.4-4.6
		c-0.1-1.7,0.7-3.5,2.2-4.7l3.9-3.2l-4.1-2.9c-1.5-1.1-2.4-2.8-2.4-4.6c-0.1-1.9,0.8-3.6,2.2-4.7l9.8-8c2.5-2,6.2-1.6,8.2,0.9
		s1.6,6.2-0.9,8.2l-3.9,3.2l4.1,2.9c1.5,1.1,2.4,2.8,2.4,4.6s-0.8,3.6-2.2,4.7l-3.9,3.2l4.1,2.9
		C884.5,545.6,885.3,547.4,885.3,549.2z"/>
	<path class="st2" d="M792.5,266.2c0,0.5-0.1,1-0.2,1.5c-0.5,1.8-1.8,3.2-3.4,3.9l-26.2,10.6l17.2,22.5c1.1,1.5,1.5,3.3,1,5.1
		c-0.5,1.8-1.8,3.2-3.4,3.9L744.1,327c-3,1.2-6.4-0.2-7.6-3.2c-1.2-3,0.2-6.4,3.2-7.6l26.2-10.6l-17.2-22.5c-1.1-1.5-1.5-3.3-1-5.1
		c0.5-1.8,1.8-3.2,3.4-3.9l26.2-10.6L760.1,241c-2-2.6-1.5-6.2,1.1-8.2s6.2-1.5,8.2,1.1l21.8,28.5
		C792,263.6,792.5,264.9,792.5,266.2z"/>
	<path class="st2" d="M22.6,673.1c0,2.3-1.3,4.4-3.5,5.4c-3,1.3-6.4-0.1-7.7-3.1l-15.8-36.9l-31.4,25c-1.4,1.1-3.3,1.5-5,1.1
		c-1.8-0.4-3.2-1.7-3.9-3.3l-15.9-36.9l-31.4,25c-2.5,2-6.2,1.6-8.2-0.9s-1.6-6.2,0.9-8.2l37.4-29.8c1.4-1.1,3.3-1.5,5-1.1
		c1.8,0.4,3.2,1.7,3.9,3.3l15.9,36.9l31.4-25c1.4-1.1,3.3-1.5,5.1-1.1s3.2,1.7,3.9,3.3l18.9,43.9C22.4,671.5,22.6,672.3,22.6,673.1z
		"/>
	<path class="st2" d="M671.4,363.7c0,1.5-0.6,3-1.7,4.1l-17.9,17.9c-2.3,2.3-6,2.3-8.2,0s-2.3-6,0-8.2l12.5-12.5l-15.4-8.7
		c-1.6-0.9-2.7-2.5-2.9-4.3c-0.3-1.8,0.4-3.6,1.7-4.9l12.5-12.5l-15.4-8.7c-2.8-1.6-3.8-5.2-2.2-8s5.2-3.8,8-2.2l22,12.5
		c1.6,0.9,2.7,2.5,2.9,4.3s-0.4,3.6-1.7,4.9l-12.5,12.5l15.4,8.7c1.6,0.9,2.7,2.5,2.9,4.3C671.4,363.2,671.4,363.4,671.4,363.7z"/>
	<path class="st2" d="M925,229.4c0,0.3,0,0.7-0.1,1c-0.3,1.8-1.5,3.3-3.1,4.2l-40,20.5l30.4,33.1c1.2,1.3,1.8,3.2,1.4,5
		c-0.3,1.8-1.5,3.3-3.1,4.2l-46.8,24c-2.9,1.5-6.4,0.3-7.8-2.5c-1.5-2.9-0.3-6.4,2.5-7.9l40-20.5l-30.3-33.1c-1.2-1.3-1.8-3.2-1.4-5
		c0.3-1.8,1.5-3.3,3.1-4.2l40-20.5l-30.4-33.2c-2.2-2.4-2-6.1,0.4-8.2c2.4-2.2,6.1-2,8.2,0.4l35.5,38.8
		C924.4,226.6,925,228,925,229.4z"/>
	<path class="st2" d="M257.6,555c0,0.6-0.1,1.1-0.2,1.7l-3.8,12.6c-0.9,3.1-4.2,4.8-7.2,3.9c-3.1-0.9-4.9-4.2-3.9-7.2l1.6-5.3
		l-5.5-0.1c-1.8,0-3.5-0.9-4.6-2.4s-1.4-3.4-0.9-5.1l1.6-5.3l-5.5-0.1c-3.2-0.1-5.7-2.7-5.7-5.8v-0.1c0.1-3.2,2.7-5.8,6-5.7
		l13.2,0.3c1.8,0,3.5,0.9,4.6,2.4s1.4,3.4,0.9,5.1l-1.6,5.3l5.5,0.1c1.8,0,3.5,0.9,4.6,2.4C257.2,552.6,257.6,553.8,257.6,555z"/>
	<path class="st2" d="M804.3,730.9c0,0.2,0,0.5,0,0.7l-3.9,33c-0.4,3.2-3.3,5.5-6.5,5.1s-5.5-3.3-5.1-6.5l3-25.4l-25.3,3.8
		c-1.8,0.3-3.6-0.3-4.9-1.6c-1.3-1.3-1.9-3-1.7-4.9l3-25.4l-25.3,3.8c-3.2,0.5-6.2-1.7-6.6-4.9c-0.5-3.2,1.7-6.2,4.9-6.6l32.9-5
		c1.8-0.3,3.6,0.3,4.9,1.6s2,3,1.7,4.9l-3,25.4l25.3-3.8c1.8-0.3,3.6,0.3,4.9,1.6C803.6,727.8,804.3,729.3,804.3,730.9z"/>
	<path class="st2" d="M305.5,242.6c0,3.1-2.4,5.6-5.5,5.8l-36.3,2l11.6,34.5c0.6,1.7,0.3,3.6-0.7,5.1s-2.7,2.5-4.5,2.5l-36.3,2.1
		l11.6,34.5c1,3-0.6,6.4-3.7,7.4c-3.1,1-6.4-0.6-7.4-3.7l-14-41.8c-0.6-1.7-0.3-3.6,0.7-5.1s2.7-2.5,4.5-2.5l36.3-2.1l-11.6-34.5
		c-0.6-1.7-0.3-3.6,0.7-5.1s2.7-2.4,4.5-2.6l43.9-2.4c3.2-0.2,6,2.3,6.1,5.5C305.5,242.4,305.5,242.5,305.5,242.6z"/>
	<path class="st2" d="M1268.9,293.3c0,2.8-2.1,5.3-4.9,5.8c-3.2,0.5-6.2-1.7-6.7-4.9l-6.9-44.5l-41.1,18.4c-1.7,0.8-3.6,0.7-5.2-0.2
		c-1.6-0.9-2.7-2.4-3-4.2l-6.9-44.5l-41.1,18.4c-2.9,1.3-6.4,0-7.7-2.9c-1.3-2.9,0-6.4,2.9-7.7l48.1-21.6c1.7-0.8,3.6-0.7,5.2,0.2
		s2.7,2.4,3,4.2l6.9,44.5l41.1-18.4c1.7-0.8,3.6-0.7,5.2,0.2s2.7,2.4,3,4.2l8.1,52C1268.9,292.7,1268.9,293,1268.9,293.3z"/>
	<path class="st2" d="M410.2,620.5C410.2,620.5,410.2,620.6,410.2,620.5L410,650c0,3.2-2.7,5.8-5.9,5.8c-3.2,0-5.8-2.6-5.8-5.8l0,0
		l0.2-21.8l-21.1,5.6c-1.8,0.5-3.6,0.1-5.1-1c-1.4-1.1-2.3-2.9-2.3-4.7l0.2-21.8l-21.1,5.6c-3.1,0.8-6.3-1-7.1-4.1
		c-0.8-3.1,1-6.3,4.1-7.1l28.5-7.6c1.8-0.5,3.6-0.1,5.1,1c1.4,1.1,2.3,2.7,2.3,4.7l-0.2,21.8l21.1-5.6c1.8-0.5,3.6-0.1,5.1,1
		C409.4,617,410.2,618.7,410.2,620.5z"/>
	<path class="st2" d="M755.1,27.1c0,2.7-1.8,5.1-4.5,5.7c-3.1,0.7-6.3-1.2-7-4.4l-0.7-3l-2.8,1.5c-1.6,0.9-3.5,0.9-5.2,0.2
		c-1.7-0.8-2.9-2.2-3.3-4l-0.7-3l-2.8,1.5c-2.8,1.5-6.4,0.5-7.9-2.4c-1.5-2.8-0.5-6.4,2.4-7.9l9.5-5.1c1.6-0.9,3.5-0.9,5.2-0.2
		c1.7,0.8,2.9,2.2,3.3,4l0.7,3.1l2.8-1.5c1.6-0.9,3.5-0.9,5.2-0.2c1.7,0.8,2.9,2.2,3.3,4l2.4,10.5C755.1,26.2,755.1,26.6,755.1,27.1
		z"/>
	<path class="st2" d="M89.6,4.4c0,1.9-1,3.8-2.7,4.9L49.7,32.5l32.1,29.7c1.3,1.2,2,3,1.8,4.8s-1.2,3.4-2.7,4.4l-37,23.1L76,124.2
		c2.4,2.2,2.5,5.9,0.3,8.2c-2.2,2.4-5.9,2.5-8.2,0.3L30.4,97.9c-1.3-1.2-2-3-1.9-4.8c0.2-1.8,1.2-3.4,2.7-4.4l37.1-23.2L36.2,35.8
		c-1.3-1.2-2-3-1.8-4.8s1.2-3.4,2.7-4.4L80.7-0.6c2.7-1.7,6.3-0.9,8,1.9C89.3,2.3,89.6,3.3,89.6,4.4z"/>
	<path class="st2" d="M1244.7,570.4c0,1.9-0.9,3.7-2.5,4.8l-34.1,23.5c-1.5,1-3.4,1.3-5.1,0.7s-3.1-1.9-3.7-3.6l-11.1-31.8
		l-27.8,19.1c-1.5,1-3.4,1.3-5.1,0.7s-3.1-1.9-3.7-3.6l-13.6-39c-1.1-3,0.6-6.4,3.6-7.4c3-1.1,6.4,0.5,7.4,3.6l11.1,31.8l27.8-19.1
		c1.5-1,3.4-1.3,5.1-0.7s3.1,1.9,3.7,3.6l11.1,31.8l27.8-19.1c2.7-1.8,6.3-1.2,8.1,1.5C1244.4,568.1,1244.7,569.3,1244.7,570.4z"/>
	<path class="st2" d="M885.5,406.4c0,0.8-0.2,1.5-0.5,2.3l-4.8,11.3c-1.3,3-4.7,4.3-7.7,3.1c-3-1.3-4.3-4.7-3.1-7.6l1.8-4.2
		l-4.6-0.6c-1.8-0.2-3.4-1.3-4.3-2.9c-0.9-1.6-1-3.5-0.3-5.2l1.8-4.3l-4.6-0.6c-3.2-0.4-5.4-3.4-5-6.6s3.4-5.4,6.6-5l12.2,1.6
		c1.8,0.2,3.4,1.3,4.3,2.9c0.9,1.6,1,3.5,0.3,5.2l-1.8,4.3l4.6,0.6c1.8,0.2,3.4,1.3,4.3,2.9C885.2,404.5,885.5,405.4,885.5,406.4z"
		/>
	<g class="st3">
		<path class="st4" d="M61.8,786.7c0,1.8-0.8,3.5-2.4,4.7c-2.6,1.9-6.2,1.4-8.2-1.2l-12.1-16.3l-12.5,16c-1.1,1.4-2.9,2.2-4.7,2.2
			c-1.8,0-3.5-0.9-4.6-2.4L5.2,773.3l-12.6,16c-2,2.5-5.6,3-8.2,1c-2.5-2-3-5.7-1-8.2l17.3-22c1.1-1.4,2.8-2.2,4.7-2.2
			c1.8,0,3.5,0.9,4.6,2.4l12.1,16.3l12.5-16c1.1-1.4,2.8-2.2,4.7-2.2c1.8,0,3.5,0.9,4.6,2.4l16.6,22.5
			C61.4,784.3,61.8,785.5,61.8,786.7z"/>
	</g>
	<path class="st2" d="M698.3,189.6c0,0.7-0.1,1.3-0.4,2l-9.8,26.6c-0.6,1.7-2,3-3.8,3.6c-1.7,0.5-3.6,0.2-5.1-0.8l-16.9-12
		l-7.1,19.4c-0.6,1.7-2,3-3.8,3.6c-1.7,0.5-3.6,0.2-5.1-0.8l-23.1-16.4c-2.6-1.9-3.2-5.5-1.4-8.1c1.9-2.6,5.5-3.2,8.1-1.4l16.9,12
		l7.1-19.4c0.6-1.7,2-3,3.7-3.6c1.7-0.5,3.6-0.2,5.1,0.8l16.9,12l7.1-19.4c1.1-3,4.5-4.6,7.5-3.5C696.8,185,698.3,187.2,698.3,189.6
		z"/>
	<path class="st2" d="M505.2,183.9c0,1.8-0.9,3.6-2.5,4.8l-48,33.8c-1.5,1.1-3.4,1.3-5.1,0.8c-1.7-0.6-3.1-1.9-3.7-3.6l-17.4-48.1
		L386.8,201c-1.5,1.1-3.4,1.3-5.1,0.8s-3.1-1.9-3.7-3.6l-20-55.1c-1.1-3,0.5-6.4,3.5-7.5s6.4,0.5,7.5,3.5l17.3,48l41.7-29.4
		c1.5-1.1,3.4-1.3,5.1-0.8c1.7,0.6,3.1,1.9,3.7,3.6l17.4,48.1l41.8-29.4c2.6-1.9,6.3-1.2,8.1,1.4
		C504.8,181.5,505.2,182.7,505.2,183.9z"/>
	<path class="st2" d="M1144.8,328.5L1144.8,328.5c0,3.2-2.6,5.8-5.8,5.8h-15.4l4.1,14.8c0.5,1.8,0.1,3.6-1,5.1s-2.8,2.3-4.6,2.3
		h-15.4l4.1,14.8c0.9,3.1-1,6.3-4.1,7.2s-6.3-1-7.2-4.1l-6.1-22.2c-0.5-1.8-0.1-3.6,1-5.1c1.1-1.4,2.8-2.3,4.6-2.3h15.4l-4.1-14.8
		c-0.5-1.8-0.1-3.6,1-5.1s2.8-2.3,4.6-2.3h23C1142.2,322.7,1144.8,325.3,1144.8,328.5z"/>
	<path class="st2" d="M168.4,343.6c0,2.7-1.8,5.1-4.6,5.7l-45.4,10.2c-1.8,0.4-3.6,0-5-1.2s-2.1-2.9-2.1-4.7l1.8-38.8l-37.9,8.5
		c-1.8,0.4-3.6,0-5-1.2s-2.1-3-2.1-4.7l2.2-46.5c0.2-3.2,2.9-5.7,6.1-5.5c3.2,0.1,5.7,3,5.6,6.1l-1.8,38.8l37.9-8.5
		c1.8-0.4,3.6,0,5,1.2s2.2,2.9,2.1,4.7l-1.8,38.8l37.9-8.5c3.1-0.7,6.3,1.3,7,4.4C168.3,342.8,168.4,343.2,168.4,343.6z"/>
	<path class="st2" d="M971.7,661.6c0,0.8-0.2,1.6-0.5,2.3c-1.3,3-4.7,4.3-7.7,3l-25.3-11.1l-4,27.4c-0.3,1.8-1.3,3.4-2.9,4.3
		s-3.5,1-5.2,0.2l-25.4-11.1l-4,27.4c-0.5,3.2-3.4,5.4-6.6,4.9s-5.4-3.5-4.9-6.6l5.1-35c0.3-1.8,1.3-3.4,2.9-4.3
		c1.6-0.9,3.5-1,5.2-0.2l25.4,11.1l4-27.4c0.3-1.8,1.3-3.4,2.9-4.3s3.5-1,5.2-0.2l32.3,14.2C970.4,657.2,971.7,659.4,971.7,661.6z"
		/>
	<path class="st2" d="M1370.4,34.1c0,2.2-1.2,4.2-3.3,5.2c-2.9,1.4-6.4,0.2-7.8-2.7l-4.2-8.6l-7.2,6.3c-1.4,1.2-3.2,1.7-5,1.3
		s-3.3-1.5-4.1-3.2l-4.2-8.6l-7.2,6.4c-2.4,2.1-6.1,1.9-8.2-0.5s-1.9-6.1,0.5-8.2l12.9-11.4c1.4-1.2,3.2-1.7,5-1.3s3.3,1.5,4.1,3.2
		l4.2,8.6l7.2-6.4c1.4-1.2,3.2-1.7,5-1.3s3.3,1.5,4.1,3.2l7.6,15.5C1370.2,32.3,1370.4,33.2,1370.4,34.1z"/>
	<path class="st2" d="M1355,685.2c0,2.8-2,5.3-4.9,5.8c-3.2,0.5-6.2-1.6-6.7-4.8l-3.6-21.6l-19.9,9.2c-1.7,0.8-3.6,0.7-5.2-0.1
		s-2.7-2.4-3-4.2l-3.6-21.6l-19.9,9.2c-2.9,1.3-6.4,0.1-7.7-2.8c-1.3-2.9-0.1-6.4,2.8-7.7l26.8-12.4c1.7-0.8,3.6-0.7,5.2,0.1
		s2.7,2.4,3,4.2l3.6,21.6l19.9-9.2c1.7-0.8,3.6-0.7,5.2,0.1s2.7,2.4,3,4.2l4.9,29.2C1354.9,684.6,1355,684.9,1355,685.2z"/>
	<path class="st2" d="M985.2,53.2c0,1.2-0.4,2.5-1.2,3.5c-1.1,1.5-2.8,2.3-4.6,2.3l-48.8,0.4l13.2,47c0.5,1.8,0.1,3.6-1,5.1
		c-1.1,1.4-2.8,2.3-4.6,2.3l-56.5,0.4c-3.2,0-5.8-2.6-5.9-5.8l0,0c0-3.2,2.6-5.8,5.8-5.8l48.8-0.3l-13.2-47c-0.5-1.8-0.2-3.6,1-5.1
		c1.1-1.5,2.8-2.3,4.6-2.3l48.9-0.4l-13.2-47c-0.9-3.1,0.9-6.3,4-7.2s6.3,0.9,7.2,4L985,51.6C985.2,52.2,985.2,52.7,985.2,53.2z"/>
	<path class="st2" d="M1034.9,499.1c0,1.4-0.5,2.7-1.4,3.8l-38.1,44.4c-2.1,2.5-5.8,2.7-8.2,0.6c-2.5-2.1-2.7-5.8-0.6-8.2l33.1-38.6
		l-46-21.7c-1.7-0.8-2.8-2.3-3.2-4c-0.4-1.8,0.1-3.6,1.3-5l33.1-38.6l-46-21.7c-2.9-1.4-4.1-4.9-2.8-7.8c1.4-2.9,4.8-4.2,7.8-2.8
		l52.9,25c1.6,0.8,2.8,2.3,3.2,4c0.4,1.8-0.1,3.6-1.3,5l-33.1,38.6l46,21.7c1.7,0.8,2.8,2.3,3.2,4
		C1034.9,498.2,1034.9,498.7,1034.9,499.1z"/>
	<path class="st2" d="M637.6,508.5c0,2.4-1.5,4.7-3.9,5.5c-3,1.1-6.4-0.5-7.4-3.6l-2.4-6.9l-6,4.2c-1.5,1-3.4,1.3-5.1,0.7
		c-1.7-0.6-3.1-1.9-3.7-3.6l-2.4-7l-6.1,4.2c-2.7,1.8-6.3,1.2-8.1-1.5s-1.2-6.3,1.5-8.1l12.4-8.5c1.5-1,3.4-1.3,5.1-0.7
		s3.1,1.9,3.7,3.6l2.4,7l6.1-4.2c1.5-1,3.4-1.3,5.1-0.7c1.7,0.6,3.1,1.9,3.7,3.6l4.9,14.2C637.5,507.2,637.6,507.9,637.6,508.5z"/>
	<path class="st2" d="M550.8,271.8c0,2.8-2,5.2-4.8,5.7l-7.7,1.4l3.3,7c0.8,1.6,0.8,3.5-0.1,5.2c-0.8,1.6-2.4,2.8-4.2,3.1l-7.7,1.4
		l3.3,7.1c1.4,2.9,0.1,6.4-2.8,7.8c-2.9,1.4-6.4,0.1-7.8-2.8l-6.6-14c-0.8-1.6-0.8-3.5,0.1-5.2c0.8-1.6,2.4-2.8,4.2-3.1l7.7-1.4
		l-3.3-7.1c-0.8-1.6-0.8-3.6,0.1-5.2c0.8-1.6,2.4-2.8,4.2-3.1l15.2-2.7c3.2-0.6,6.2,1.6,6.8,4.7
		C550.8,271.1,550.8,271.5,550.8,271.8z"/>
	<path class="st2" d="M802.8,463.9c0,1.7-0.7,3.4-2.1,4.5c-2.5,2-6.2,1.7-8.2-0.8l-14.1-17.2l-12.8,18.1c-1,1.5-2.7,2.4-4.5,2.5
		s-3.6-0.7-4.7-2.1l-14.1-17.2l-13,18.3c-1.9,2.6-5.5,3.2-8.1,1.4c-2.6-1.9-3.2-5.5-1.4-8.1l17.2-24.4c1-1.5,2.7-2.4,4.5-2.5
		s3.6,0.7,4.7,2.1l14.1,17.2l12.8-18.2c1-1.5,2.7-2.4,4.5-2.5s3.6,0.7,4.7,2.1l19,23.1C802.4,461.3,802.8,462.6,802.8,463.9z"/>
	<path class="st2" d="M301.3,715.1c0,1.2-0.4,2.4-1.1,3.4L274.4,755c-1.9,2.6-5.5,3.2-8.1,1.4s-3.2-5.5-1.4-8.1l21.4-30.3
		l-34.9-12.6c-1.7-0.6-3-2-3.6-3.7c-0.5-1.7-0.2-3.6,0.8-5.1l21.4-30.3l-34.9-12.7c-3-1.1-4.6-4.4-3.5-7.5c1.1-3,4.4-4.6,7.5-3.5
		l42.1,15.2c1.7,0.6,3,2,3.6,3.7c0.5,1.7,0.2,3.6-0.8,5.1l-21.4,30.3l34.9,12.6c1.7,0.6,3,2,3.6,3.7
		C301.2,713.9,301.3,714.5,301.3,715.1z"/>
	<path class="st2" d="M438.5,784.2c0,3-2.4,5.6-5.4,5.8l-23.5,1.6c-1.8,0.1-3.6-0.6-4.8-2c-1.2-1.4-1.7-3.2-1.3-5l3.1-15.6
		l-15.9,1.1c-1.8,0.1-3.6-0.6-4.8-2c-1.2-1.4-1.7-3.2-1.3-5l4.6-23.1c0.6-3.2,3.7-5.2,6.9-4.6s5.2,3.7,4.6,6.9l-3.1,15.6l15.9-1.1
		c1.8-0.1,3.6,0.6,4.8,2c1.2,1.4,1.7,3.2,1.3,5l-3.1,15.6l15.9-1.1c3.2-0.2,6,2.2,6.2,5.4C438.5,783.9,438.5,784.1,438.5,784.2z"/>
	<path class="st2" d="M174.2,186.8c0,1.3-0.4,2.6-1.3,3.7l-19.7,24.4c-1.1,1.4-2.9,2.2-4.7,2.2c-1.8-0.1-3.5-0.9-4.6-2.4L130,195.5
		l-14.9,18.4c-1.1,1.4-2.9,2.2-4.7,2.2s-3.5-0.9-4.6-2.4l-18.3-25.4c-1.9-2.6-1.3-6.3,1.3-8.1s6.3-1.3,8.1,1.3l13.8,19.2l14.9-18.4
		c1.1-1.4,2.9-2.2,4.7-2.2c1.8,0.1,3.5,0.9,4.6,2.4l13.9,19.2l14.9-18.4c2-2.5,5.7-2.9,8.2-0.9C173.5,183.4,174.2,185.1,174.2,186.8
		z"/>
	<path class="st2" d="M162.2,448.5c0,0.4,0,0.7-0.1,1l-8.9,48.7c-0.3,1.8-1.5,3.3-3.1,4.1s-3.5,0.9-5.2,0.1l-37.7-18.1l-7.5,41.1
		c-0.3,1.8-1.5,3.3-3.1,4.2c-1.6,0.8-3.5,0.8-5.2,0.1l-44.6-21.4c-2.9-1.4-4.1-4.9-2.7-7.8c1.4-2.9,4.9-4.1,7.8-2.7l37.7,18.1
		l7.5-41.1c0.3-1.8,1.5-3.3,3.1-4.1c1.6-0.8,3.5-0.9,5.2-0.1l37.7,18.1l7.5-41.2c0.6-3.2,3.6-5.3,6.8-4.7
		C160.2,443.3,162.2,445.8,162.2,448.5z"/>
	<path class="st2" d="M372.1,475.9c0,2.6-1.8,5-4.5,5.7l-44.7,10.9c-1.8,0.4-3.6,0-5-1.1s-2.3-2.9-2.2-4.7l1.1-38.4l-37.3,9.1
		c-1.8,0.4-3.6,0-5-1.1s-2.2-2.8-2.2-4.7l1.4-46c0.1-3.2,2.8-5.8,6-5.7s5.8,2.8,5.7,6l-1.1,38.3l37.3-9.1c1.8-0.4,3.6,0,5,1.1
		s2.3,2.9,2.2,4.7l-1.1,38.4l37.3-9.1c3.1-0.8,6.3,1.2,7,4.3C372,475,372.1,475.4,372.1,475.9z"/>
	<path class="st2" d="M1243.2,58.7c0,0.4,0,0.7-0.1,1.1c-0.3,1.8-1.5,3.3-3.1,4.1L1207.6,80l24.1,27c1.2,1.4,1.7,3.2,1.4,5
		c-0.3,1.8-1.5,3.3-3.1,4.1l-39.3,19.5c-2.9,1.4-6.4,0.2-7.8-2.6s-0.2-6.4,2.6-7.8l32.4-16.1l-24.1-27c-1.2-1.4-1.7-3.2-1.4-5
		s1.5-3.3,3.1-4.1l32.4-16.1l-24.1-27c-2.2-2.4-1.9-6.1,0.5-8.2s6.1-1.9,8.2,0.5l29.2,32.7C1242.7,55.9,1243.2,57.3,1243.2,58.7z"/>
	<path class="st2" d="M1357.6,368.6c0,1.1-0.3,2.3-1,3.3l-27.7,40.5c-1,1.5-2.7,2.4-4.5,2.5s-3.6-0.7-4.8-2l-26.9-31.5l-23.3,34.2
		c-1,1.5-2.7,2.4-4.5,2.5s-3.6-0.7-4.8-2l-31.8-37.4c-2.1-2.5-1.8-6.1,0.7-8.2c2.4-2.1,6.1-1.8,8.2,0.7l26.8,31.5l23.3-34.2
		c1-1.5,2.7-2.4,4.5-2.5s3.6,0.7,4.8,2l26.9,31.5l23.3-34.2c1.8-2.7,5.4-3.4,8.1-1.5C1356.7,364.9,1357.6,366.8,1357.6,368.6z"/>
	<path class="st2" d="M861.5,13.5c0,0.5-0.1,1-0.2,1.5c-0.8,3.1-4.1,4.9-7.2,4.1l-3.9-1.1v4.1l0,0c0,1.8-0.8,3.5-2.3,4.6
		c-1.4,1.1-3.3,1.5-5.1,1l-3.9-1.1v4.1l0,0c0,3.2-2.6,5.8-5.8,5.8s-5.8-2.6-5.8-5.8V19l0,0c0-1.8,0.8-3.5,2.3-4.6s3.3-1.5,5.1-1
		l3.9,1.1v-4.1l0,0c0-1.8,0.8-3.5,2.3-4.6s3.3-1.5,5.1-1l11.3,3.1C859.8,8.6,861.5,10.9,861.5,13.5z"/>
	<path class="st2" d="M707.4,96.2c0,1.2-0.3,2.3-1,3.3c-1,1.5-2.7,2.4-4.5,2.6l-10.8,0.6l3.4,10.2c0.6,1.7,0.3,3.6-0.7,5.1
		s-2.7,2.4-4.5,2.6l-18.4,1c-3.2,0.2-6-2.3-6.1-5.5c-0.2-3.2,2.3-6,5.5-6.1l10.7-0.6l-3.4-10.2c-0.6-1.7-0.3-3.6,0.7-5.1
		s2.7-2.4,4.5-2.6l10.8-0.6l-3.4-10.2c-1-3,0.6-6.3,3.7-7.4c3-1,6.4,0.6,7.4,3.7l5.8,17.5C707.3,94.9,707.4,95.6,707.4,96.2z"/>
	<path class="st2" d="M1098.9,660.8c0,1.3-0.4,2.6-1.3,3.6l-21.9,27.4c-2,2.5-5.7,2.9-8.2,0.9s-2.9-5.7-0.9-8.2l17.1-21.4
		l-25.2-10.9c-1.7-0.7-2.9-2.2-3.3-3.9c-0.4-1.8,0-3.6,1.1-5l17.1-21.4l-25.2-10.9c-3-1.3-4.3-4.7-3-7.7s4.7-4.3,7.7-3l32.2,13.9
		c1.7,0.7,2.9,2.2,3.3,3.9c0.4,1.8,0,3.6-1.1,5l-17.1,21.4l25.2,10.9c1.7,0.7,2.9,2.2,3.3,4C1098.8,659.8,1098.9,660.3,1098.9,660.8
		z"/>
	<path class="st2" d="M436.4,366.8c0,0.7-0.1,1.4-0.4,2.1l-19.2,51c-1.1,3-4.5,4.5-7.5,3.4s-4.5-4.5-3.4-7.5l16.5-43.8l-46.6-4.3
		c-1.8-0.2-3.4-1.2-4.4-2.7s-1.2-3.4-0.5-5.1l16.5-43.9l-46.6-4.4c-3.2-0.3-5.6-3.1-5.3-6.4c0.3-3.2,3.1-5.6,6.4-5.3l54.3,5.1
		c1.8,0.2,3.4,1.2,4.4,2.7s1.2,3.5,0.5,5.1l-16.5,43.9l46.6,4.3c1.8,0.2,3.4,1.2,4.4,2.7C436.1,364.6,436.4,365.7,436.4,366.8z"/>
</g>
</svg>
